<svg width="24" height="24" viewBox="0 0 24 24" fill="none" xmlns="http://www.w3.org/2000/svg">
<path d="M23.4417 4.78097C23.38 4.66096 23.2907 4.55723 23.1813 4.47821C23.0719 4.39919 22.9454 4.34712 22.812 4.32624C22.6786 4.30536 22.5422 4.31626 22.4139 4.35805C22.2855 4.39985 22.1688 4.47135 22.0734 4.56674L18.7817 7.85937C18.6201 8.01856 18.4024 8.10779 18.1755 8.10779C17.9487 8.10779 17.7309 8.01856 17.5693 7.85937L16.1464 6.43478C16.0668 6.35521 16.0036 6.26074 15.9605 6.15676C15.9174 6.05278 15.8952 5.94134 15.8952 5.82879C15.8952 5.71625 15.9174 5.60481 15.9605 5.50083C16.0036 5.39685 16.0668 5.30238 16.1464 5.22281L19.4241 1.94571C19.5224 1.8475 19.5953 1.72688 19.6365 1.59425C19.6778 1.46162 19.6862 1.32095 19.661 1.18435C19.6358 1.04775 19.5777 0.919325 19.4919 0.810132C19.406 0.700939 19.2948 0.614252 19.168 0.557538C16.6923 -0.548931 13.6021 0.0284034 11.6536 1.96178C9.99811 3.60488 9.50469 6.17236 10.3008 9.00601C10.3437 9.15712 10.344 9.31716 10.3015 9.4684C10.2591 9.61964 10.1756 9.75618 10.0603 9.86291L1.1411 18.0061C0.793638 18.318 0.513371 18.6973 0.317398 19.121C0.121426 19.5447 0.0138571 20.0039 0.00125269 20.4705C-0.0113517 20.9372 0.071273 21.4015 0.244087 21.8351C0.4169 22.2688 0.67628 22.6627 1.0064 22.9929C1.33653 23.323 1.73047 23.5825 2.16421 23.7554C2.59795 23.9284 3.06238 24.0112 3.52918 23.9988C3.99599 23.9864 4.45537 23.8791 4.87931 23.6834C5.30326 23.4876 5.68287 23.2076 5.99499 22.8604L14.2284 13.9246C14.3336 13.8108 14.4679 13.7279 14.6168 13.6848C14.7657 13.6416 14.9235 13.6399 15.0733 13.6798C15.8803 13.9009 16.7128 14.0156 17.5495 14.021C19.3389 14.021 20.9092 13.4421 22.0418 12.3265C24.1392 10.2608 24.4591 6.75719 23.4417 4.78097V4.78097ZM3.61573 22.274C3.26288 22.3125 2.90678 22.2406 2.59657 22.0681C2.28636 21.8957 2.03733 21.6313 1.88386 21.3114C1.73038 20.9914 1.68003 20.6318 1.73974 20.282C1.79945 19.9322 1.96629 19.6096 2.21723 19.3587C2.46816 19.1078 2.79083 18.9409 3.14069 18.8811C3.49055 18.8212 3.85036 18.8714 4.17046 19.0248C4.49056 19.1781 4.75516 19.4269 4.92776 19.7369C5.10036 20.047 5.17243 20.4029 5.13404 20.7557C5.0918 21.1438 4.91828 21.5058 4.64218 21.7819C4.36608 22.058 4.00396 22.2316 3.61573 22.274V22.274Z" fill="black"/>
</svg>
