<svg width="29" height="29" viewBox="0 0 29 29" fill="none" xmlns="http://www.w3.org/2000/svg">
<path d="M22.0533 15.3048C23.3897 15.3036 24.6964 15.6989 25.8081 16.4406C26.9197 17.1824 27.7864 18.2372 28.2984 19.4717C28.8103 20.7061 28.9446 22.0647 28.6842 23.3755C28.4237 24.6863 27.7803 25.8903 26.8353 26.8353C25.8903 27.7803 24.6863 28.4237 23.3755 28.6842C22.0647 28.9446 20.7061 28.8103 19.4717 28.2984C18.2372 27.7864 17.1824 26.9197 16.4406 25.8081C15.6989 24.6964 15.3036 23.3897 15.3048 22.0533C15.308 20.2644 16.02 18.5498 17.2849 17.2849C18.5498 16.02 20.2644 15.308 22.0533 15.3048ZM11.1377 21.4333C11.6093 21.4333 12.0704 21.5731 12.4625 21.8351C12.8547 22.0972 13.1603 22.4696 13.3408 22.9053C13.5213 23.3411 13.5685 23.8205 13.4765 24.2831C13.3845 24.7457 13.1574 25.1706 12.8239 25.5041C12.4904 25.8376 12.0655 26.0647 11.6029 26.1567C11.1403 26.2487 10.6609 26.2015 10.2251 26.021C9.78941 25.8405 9.41698 25.5348 9.15496 25.1427C8.89293 24.7506 8.75308 24.2895 8.75308 23.8179C8.75308 23.1854 9.00431 22.5789 9.45152 22.1317C9.89872 21.6845 10.5053 21.4333 11.1377 21.4333ZM24.5154 19.311L20.9027 23.3588L19.2692 21.7075C19.1811 21.6205 19.0622 21.5717 18.9384 21.5717C18.8145 21.5717 18.6956 21.6205 18.6075 21.7075L17.9458 22.3454C17.9033 22.3814 17.8684 22.4255 17.8432 22.4752C17.8181 22.5249 17.8031 22.5791 17.7992 22.6347C17.7953 22.6902 17.8026 22.746 17.8206 22.7987C17.8386 22.8514 17.867 22.9 17.904 22.9415L17.9458 22.9892L20.2231 25.2308C20.4028 25.4123 20.6472 25.5152 20.9027 25.5169C21.029 25.5206 21.1545 25.4969 21.2708 25.4475C21.3871 25.3981 21.4913 25.3242 21.5763 25.2308L25.8627 20.539C25.9275 20.4532 25.9626 20.3485 25.9626 20.241C25.9626 20.1334 25.9275 20.0287 25.8627 19.9429L25.195 19.3169C25.1069 19.2299 24.988 19.1811 24.8641 19.1811C24.7403 19.1811 24.6214 19.2299 24.5333 19.3169L24.5154 19.311ZM3.88846 0.192302C4.18991 0.199859 4.48142 0.301683 4.72201 0.483464C4.9626 0.665245 5.14019 0.917844 5.22981 1.20576L5.59942 2.49346H26.6377C26.8739 2.48703 27.103 2.57433 27.275 2.7363C27.4471 2.89827 27.548 3.12173 27.5558 3.35788C27.562 3.45271 27.5498 3.54784 27.52 3.63807L25.0281 12.3717C24.9854 12.566 24.8756 12.7391 24.7181 12.8606C23.8516 12.6113 22.9549 12.4829 22.0533 12.479C20.9398 12.4859 19.8362 12.6877 18.7923 13.0752H10.5415C10.3693 13.0736 10.1984 13.106 10.0387 13.1704C9.87899 13.2349 9.73353 13.3302 9.61063 13.4509C9.48774 13.5716 9.38982 13.7153 9.32246 13.8738C9.25511 14.0323 9.21964 14.2026 9.21808 14.3748C9.21659 14.5273 9.24285 14.6788 9.29558 14.8219V14.8696C9.37799 15.1487 9.54855 15.3936 9.78174 15.5677C10.0149 15.7418 10.2982 15.8357 10.5892 15.8354H14.8219C14.1203 16.6517 13.562 17.5809 13.1706 18.5836H8.53846C8.2346 18.5855 7.93858 18.4873 7.69613 18.3041C7.45369 18.1209 7.27832 17.863 7.19712 17.5702L2.875 2.94653H1.58135C1.20766 2.94026 0.851678 2.78617 0.591342 2.51801C0.331006 2.24986 0.187524 1.88947 0.192308 1.51576V1.47999C0.236404 1.12074 0.411791 0.790491 0.684728 0.552772C0.957664 0.315054 1.30887 0.186663 1.67077 0.192302H3.88846Z" fill="white"/>
</svg>
