<svg width="24" height="25" viewBox="0 0 24 25" fill="none" xmlns="http://www.w3.org/2000/svg">
<path d="M14.3333 10.2079V18.8083M9 10.2079V18.8083M3.66667 5.29333V19.7913C3.66667 21.1675 3.66667 21.8551 3.95732 22.3807C4.21297 22.8431 4.62063 23.2198 5.1224 23.4553C5.69227 23.7229 6.43865 23.7229 7.92921 23.7229H15.4041C16.8947 23.7229 17.64 23.7229 18.2099 23.4553C18.7116 23.2198 19.1207 22.8431 19.3763 22.3807C19.6667 21.8556 19.6667 21.1686 19.6667 19.7951V5.29333M3.66667 5.29333H6.33333M3.66667 5.29333H1M19.6667 5.29333H17M19.6667 5.29333H22.3333M6.33333 5.29333H17M6.33333 5.29333C6.33333 4.14839 6.33333 3.5762 6.53632 3.12462C6.80697 2.52252 7.32576 2.04387 7.97917 1.79447C8.46923 1.60742 9.0908 1.60742 10.3333 1.60742H13C14.2425 1.60742 14.8637 1.60742 15.3539 1.79447C16.0072 2.04387 16.5263 2.52252 16.7969 3.12462C16.9999 3.57619 17 4.14839 17 5.29333" stroke="#C0392B" stroke-width="2" stroke-linecap="round" stroke-linejoin="round"/>
</svg>
